<mxfile host="app.diagrams.net" agent="Mozilla/5.0 (Windows NT 10.0; Win64; x64) AppleWebKit/537.36 (KHTML, like Gecko) Chrome/130.0.0.0 Safari/537.36" version="24.8.6">
  <diagram name="Page-1" id="5VGJnAvznidUCp_y3e0-">
    <mxGraphModel dx="1539" dy="520" grid="1" gridSize="10" guides="1" tooltips="1" connect="1" arrows="1" fold="1" page="1" pageScale="1" pageWidth="1169" pageHeight="827" math="0" shadow="0">
      <root>
        <mxCell id="0" />
        <mxCell id="1" parent="0" />
        <mxCell id="LqY4Q-QOIKpyZpB3mY2m-11" value="" style="rounded=0;whiteSpace=wrap;html=1;" parent="1" vertex="1">
          <mxGeometry x="180" y="153" width="200" height="521" as="geometry" />
        </mxCell>
        <mxCell id="LqY4Q-QOIKpyZpB3mY2m-12" value="Register" style="ellipse;whiteSpace=wrap;html=1;" parent="1" vertex="1">
          <mxGeometry x="200" y="169" width="160" height="50" as="geometry" />
        </mxCell>
        <mxCell id="LqY4Q-QOIKpyZpB3mY2m-13" value="Login" style="ellipse;whiteSpace=wrap;html=1;" parent="1" vertex="1">
          <mxGeometry x="200" y="240" width="160" height="50" as="geometry" />
        </mxCell>
        <mxCell id="LqY4Q-QOIKpyZpB3mY2m-14" value="Search&amp;nbsp;" style="ellipse;whiteSpace=wrap;html=1;" parent="1" vertex="1">
          <mxGeometry x="200" y="311" width="160" height="50" as="geometry" />
        </mxCell>
        <mxCell id="LqY4Q-QOIKpyZpB3mY2m-15" value="Fill Form" style="ellipse;whiteSpace=wrap;html=1;" parent="1" vertex="1">
          <mxGeometry x="200" y="379" width="160" height="50" as="geometry" />
        </mxCell>
        <mxCell id="LqY4Q-QOIKpyZpB3mY2m-17" value="Logout" style="ellipse;whiteSpace=wrap;html=1;" parent="1" vertex="1">
          <mxGeometry x="200" y="614" width="160" height="50" as="geometry" />
        </mxCell>
        <mxCell id="LqY4Q-QOIKpyZpB3mY2m-18" value="User&amp;nbsp;" style="shape=umlActor;verticalLabelPosition=bottom;verticalAlign=top;html=1;outlineConnect=0;" parent="1" vertex="1">
          <mxGeometry x="-30" y="354" width="40" height="71" as="geometry" />
        </mxCell>
        <mxCell id="LqY4Q-QOIKpyZpB3mY2m-24" value="" style="endArrow=classic;html=1;rounded=0;" parent="1" edge="1">
          <mxGeometry width="50" height="50" relative="1" as="geometry">
            <mxPoint x="278.63" y="220" as="sourcePoint" />
            <mxPoint x="279" y="240" as="targetPoint" />
          </mxGeometry>
        </mxCell>
        <mxCell id="LqY4Q-QOIKpyZpB3mY2m-27" value="" style="endArrow=classic;html=1;rounded=0;" parent="1" edge="1">
          <mxGeometry width="50" height="50" relative="1" as="geometry">
            <mxPoint x="279.63" y="291" as="sourcePoint" />
            <mxPoint x="280" y="311" as="targetPoint" />
          </mxGeometry>
        </mxCell>
        <mxCell id="LqY4Q-QOIKpyZpB3mY2m-28" value="" style="endArrow=classic;html=1;rounded=0;" parent="1" edge="1">
          <mxGeometry width="50" height="50" relative="1" as="geometry">
            <mxPoint x="279.63" y="361" as="sourcePoint" />
            <mxPoint x="280" y="381" as="targetPoint" />
          </mxGeometry>
        </mxCell>
        <mxCell id="LqY4Q-QOIKpyZpB3mY2m-29" value="" style="endArrow=classic;html=1;rounded=0;entryX=0.5;entryY=0;entryDx=0;entryDy=0;" parent="1" target="LqY4Q-QOIKpyZpB3mY2m-40" edge="1">
          <mxGeometry width="50" height="50" relative="1" as="geometry">
            <mxPoint x="279.63" y="433" as="sourcePoint" />
            <mxPoint x="280" y="453" as="targetPoint" />
          </mxGeometry>
        </mxCell>
        <mxCell id="LqY4Q-QOIKpyZpB3mY2m-30" value="" style="endArrow=classic;html=1;rounded=0;entryX=0.5;entryY=0;entryDx=0;entryDy=0;" parent="1" source="LqY4Q-QOIKpyZpB3mY2m-16" target="LqY4Q-QOIKpyZpB3mY2m-17" edge="1">
          <mxGeometry width="50" height="50" relative="1" as="geometry">
            <mxPoint x="280" y="554" as="sourcePoint" />
            <mxPoint x="280" y="523" as="targetPoint" />
          </mxGeometry>
        </mxCell>
        <mxCell id="LqY4Q-QOIKpyZpB3mY2m-31" value="" style="endArrow=none;html=1;rounded=0;entryX=0;entryY=0.5;entryDx=0;entryDy=0;" parent="1" target="LqY4Q-QOIKpyZpB3mY2m-12" edge="1">
          <mxGeometry width="50" height="50" relative="1" as="geometry">
            <mxPoint x="20" y="374" as="sourcePoint" />
            <mxPoint x="160" y="264" as="targetPoint" />
          </mxGeometry>
        </mxCell>
        <mxCell id="LqY4Q-QOIKpyZpB3mY2m-32" value="" style="endArrow=none;html=1;rounded=0;entryX=0;entryY=0.5;entryDx=0;entryDy=0;" parent="1" target="LqY4Q-QOIKpyZpB3mY2m-13" edge="1">
          <mxGeometry width="50" height="50" relative="1" as="geometry">
            <mxPoint x="30" y="384" as="sourcePoint" />
            <mxPoint x="210" y="208" as="targetPoint" />
          </mxGeometry>
        </mxCell>
        <mxCell id="LqY4Q-QOIKpyZpB3mY2m-33" value="" style="endArrow=none;html=1;rounded=0;entryX=0.006;entryY=0.391;entryDx=0;entryDy=0;entryPerimeter=0;" parent="1" target="LqY4Q-QOIKpyZpB3mY2m-14" edge="1">
          <mxGeometry width="50" height="50" relative="1" as="geometry">
            <mxPoint x="40" y="394" as="sourcePoint" />
            <mxPoint x="220" y="218" as="targetPoint" />
          </mxGeometry>
        </mxCell>
        <mxCell id="LqY4Q-QOIKpyZpB3mY2m-34" value="" style="endArrow=none;html=1;rounded=0;entryX=0;entryY=0.5;entryDx=0;entryDy=0;" parent="1" target="LqY4Q-QOIKpyZpB3mY2m-15" edge="1">
          <mxGeometry width="50" height="50" relative="1" as="geometry">
            <mxPoint x="40" y="404" as="sourcePoint" />
            <mxPoint x="230" y="228" as="targetPoint" />
          </mxGeometry>
        </mxCell>
        <mxCell id="LqY4Q-QOIKpyZpB3mY2m-35" value="" style="endArrow=none;html=1;rounded=0;entryX=0;entryY=0.5;entryDx=0;entryDy=0;" parent="1" target="LqY4Q-QOIKpyZpB3mY2m-16" edge="1">
          <mxGeometry width="50" height="50" relative="1" as="geometry">
            <mxPoint x="30" y="424" as="sourcePoint" />
            <mxPoint x="240" y="238" as="targetPoint" />
          </mxGeometry>
        </mxCell>
        <mxCell id="LqY4Q-QOIKpyZpB3mY2m-36" value="" style="endArrow=none;html=1;rounded=0;entryX=0;entryY=0.5;entryDx=0;entryDy=0;" parent="1" target="LqY4Q-QOIKpyZpB3mY2m-17" edge="1">
          <mxGeometry width="50" height="50" relative="1" as="geometry">
            <mxPoint x="20" y="434" as="sourcePoint" />
            <mxPoint x="250" y="248" as="targetPoint" />
          </mxGeometry>
        </mxCell>
        <mxCell id="LqY4Q-QOIKpyZpB3mY2m-40" value="Sugegstions" style="ellipse;whiteSpace=wrap;html=1;" parent="1" vertex="1">
          <mxGeometry x="200" y="459" width="160" height="50" as="geometry" />
        </mxCell>
        <mxCell id="LqY4Q-QOIKpyZpB3mY2m-41" value="" style="endArrow=classic;html=1;rounded=0;entryX=0.5;entryY=0;entryDx=0;entryDy=0;" parent="1" target="LqY4Q-QOIKpyZpB3mY2m-16" edge="1">
          <mxGeometry width="50" height="50" relative="1" as="geometry">
            <mxPoint x="280" y="554" as="sourcePoint" />
            <mxPoint x="280" y="614" as="targetPoint" />
          </mxGeometry>
        </mxCell>
        <mxCell id="LqY4Q-QOIKpyZpB3mY2m-16" value="View Recipe" style="ellipse;whiteSpace=wrap;html=1;" parent="1" vertex="1">
          <mxGeometry x="200" y="534" width="160" height="50" as="geometry" />
        </mxCell>
        <mxCell id="LqY4Q-QOIKpyZpB3mY2m-42" value="" style="endArrow=classic;html=1;rounded=0;exitX=0.5;exitY=1;exitDx=0;exitDy=0;" parent="1" source="LqY4Q-QOIKpyZpB3mY2m-40" target="LqY4Q-QOIKpyZpB3mY2m-16" edge="1">
          <mxGeometry width="50" height="50" relative="1" as="geometry">
            <mxPoint x="289.63" y="443" as="sourcePoint" />
            <mxPoint x="290" y="474" as="targetPoint" />
          </mxGeometry>
        </mxCell>
        <mxCell id="LqY4Q-QOIKpyZpB3mY2m-45" value="" style="endArrow=none;html=1;rounded=0;entryX=0;entryY=0.5;entryDx=0;entryDy=0;" parent="1" target="LqY4Q-QOIKpyZpB3mY2m-40" edge="1">
          <mxGeometry width="50" height="50" relative="1" as="geometry">
            <mxPoint x="40" y="414" as="sourcePoint" />
            <mxPoint x="210" y="569" as="targetPoint" />
          </mxGeometry>
        </mxCell>
        <mxCell id="zVFzAMCCulww1tuRlH-K-1" value="Recipe Results Displayed" style="rounded=0;whiteSpace=wrap;html=1;" vertex="1" parent="1">
          <mxGeometry x="-850" y="383.5" width="170" height="60" as="geometry" />
        </mxCell>
        <mxCell id="zVFzAMCCulww1tuRlH-K-2" value="Idle State" style="rounded=0;whiteSpace=wrap;html=1;" vertex="1" parent="1">
          <mxGeometry x="-850" y="110" width="170" height="49" as="geometry" />
        </mxCell>
        <mxCell id="zVFzAMCCulww1tuRlH-K-3" value="Processing Request" style="rounded=0;whiteSpace=wrap;html=1;" vertex="1" parent="1">
          <mxGeometry x="-850" y="290" width="170" height="50" as="geometry" />
        </mxCell>
        <mxCell id="zVFzAMCCulww1tuRlH-K-4" value="Ingredients Entered" style="rounded=0;whiteSpace=wrap;html=1;" vertex="1" parent="1">
          <mxGeometry x="-850" y="197" width="170" height="51" as="geometry" />
        </mxCell>
        <mxCell id="zVFzAMCCulww1tuRlH-K-5" value="Idle State" style="rounded=0;whiteSpace=wrap;html=1;" vertex="1" parent="1">
          <mxGeometry x="-850" y="484" width="170" height="50" as="geometry" />
        </mxCell>
        <mxCell id="zVFzAMCCulww1tuRlH-K-8" value="&lt;span class=&quot;hljs-built_in&quot;&gt;requestRecipes&lt;/span&gt;()" style="text;whiteSpace=wrap;html=1;" vertex="1" parent="1">
          <mxGeometry x="-760" y="255" width="100" height="20" as="geometry" />
        </mxCell>
        <mxCell id="zVFzAMCCulww1tuRlH-K-9" value="" style="endArrow=classic;html=1;rounded=0;entryX=0.5;entryY=0;entryDx=0;entryDy=0;exitX=0.5;exitY=1;exitDx=0;exitDy=0;" edge="1" parent="1" source="zVFzAMCCulww1tuRlH-K-1" target="zVFzAMCCulww1tuRlH-K-5">
          <mxGeometry width="50" height="50" relative="1" as="geometry">
            <mxPoint x="-710" y="380" as="sourcePoint" />
            <mxPoint x="-660" y="330" as="targetPoint" />
          </mxGeometry>
        </mxCell>
        <mxCell id="zVFzAMCCulww1tuRlH-K-10" value="" style="endArrow=classic;html=1;rounded=0;exitX=0.5;exitY=1;exitDx=0;exitDy=0;entryX=0.5;entryY=0;entryDx=0;entryDy=0;" edge="1" parent="1" source="zVFzAMCCulww1tuRlH-K-3" target="zVFzAMCCulww1tuRlH-K-1">
          <mxGeometry width="50" height="50" relative="1" as="geometry">
            <mxPoint x="-770" y="340" as="sourcePoint" />
            <mxPoint x="-770" y="380" as="targetPoint" />
          </mxGeometry>
        </mxCell>
        <mxCell id="zVFzAMCCulww1tuRlH-K-11" value="" style="endArrow=classic;html=1;rounded=0;exitX=0.5;exitY=1;exitDx=0;exitDy=0;entryX=0.5;entryY=0;entryDx=0;entryDy=0;" edge="1" parent="1" source="zVFzAMCCulww1tuRlH-K-4" target="zVFzAMCCulww1tuRlH-K-3">
          <mxGeometry width="50" height="50" relative="1" as="geometry">
            <mxPoint x="-770" y="248" as="sourcePoint" />
            <mxPoint x="-770" y="290" as="targetPoint" />
          </mxGeometry>
        </mxCell>
        <mxCell id="zVFzAMCCulww1tuRlH-K-12" value="" style="endArrow=classic;html=1;rounded=0;entryX=0.5;entryY=0;entryDx=0;entryDy=0;exitX=0.5;exitY=1;exitDx=0;exitDy=0;" edge="1" parent="1" source="zVFzAMCCulww1tuRlH-K-2">
          <mxGeometry width="50" height="50" relative="1" as="geometry">
            <mxPoint x="-765" y="157" as="sourcePoint" />
            <mxPoint x="-765" y="197" as="targetPoint" />
          </mxGeometry>
        </mxCell>
        <mxCell id="zVFzAMCCulww1tuRlH-K-15" value="&lt;span class=&quot;hljs-built_in&quot;&gt;recipesRetrieved&lt;/span&gt;()" style="text;whiteSpace=wrap;html=1;" vertex="1" parent="1">
          <mxGeometry x="-760" y="349.5" width="80" height="26.5" as="geometry" />
        </mxCell>
        <mxCell id="zVFzAMCCulww1tuRlH-K-16" value="&lt;span class=&quot;hljs-built_in&quot;&gt;reset&lt;/span&gt;()" style="text;whiteSpace=wrap;html=1;" vertex="1" parent="1">
          <mxGeometry x="-745" y="451.5" width="45" height="16.5" as="geometry" />
        </mxCell>
      </root>
    </mxGraphModel>
  </diagram>
</mxfile>
